<svg xmlns="http://www.w3.org/2000/svg" xmlns:xlink="http://www.w3.org/1999/xlink" width="500" zoomAndPan="magnify" viewBox="0 0 375 374.999991" height="500" preserveAspectRatio="xMidYMid meet" version="1.0"><defs><g/><clipPath id="8c7fafd600"><path d="M 86.703125 167.410156 L 129.453125 167.410156 L 129.453125 207.910156 L 86.703125 207.910156 Z M 86.703125 167.410156 " clip-rule="nonzero"/></clipPath></defs><path fill="#38b6ff" d="M 123.03125 178.671875 C 123.03125 177.28125 121.898438 176.152344 120.511719 176.152344 C 119.125 176.152344 117.996094 177.28125 117.996094 178.671875 C 117.996094 180.058594 119.125 181.1875 120.511719 181.1875 C 121.898438 181.1875 123.03125 180.058594 123.03125 178.671875 Z M 118.667969 178.671875 C 118.667969 177.652344 119.496094 176.824219 120.511719 176.824219 C 121.527344 176.824219 122.355469 177.652344 122.355469 178.671875 C 122.355469 179.6875 121.527344 180.515625 120.511719 180.515625 C 119.496094 180.515625 118.667969 179.6875 118.667969 178.671875 Z M 118.667969 178.671875 " fill-opacity="1" fill-rule="nonzero"/><path fill="#38b6ff" d="M 99.09375 172.324219 C 99.09375 170.9375 97.964844 169.808594 96.574219 169.808594 C 95.1875 169.808594 94.058594 170.9375 94.058594 172.324219 C 94.058594 173.714844 95.1875 174.84375 96.574219 174.84375 C 97.964844 174.84375 99.09375 173.714844 99.09375 172.324219 Z M 94.730469 172.324219 C 94.730469 171.308594 95.558594 170.480469 96.574219 170.480469 C 97.59375 170.480469 98.417969 171.308594 98.417969 172.324219 C 98.417969 173.34375 97.59375 174.171875 96.574219 174.171875 C 95.558594 174.171875 94.730469 173.34375 94.730469 172.324219 Z M 94.730469 172.324219 " fill-opacity="1" fill-rule="nonzero"/><path fill="#38b6ff" d="M 105.695312 188.3125 C 104.679688 188.3125 103.851562 189.140625 103.851562 190.160156 C 103.851562 191.175781 104.679688 192.003906 105.695312 192.003906 C 106.710938 192.003906 107.539062 191.175781 107.539062 190.160156 C 107.539062 189.140625 106.710938 188.3125 105.695312 188.3125 Z M 105.695312 188.3125 " fill-opacity="1" fill-rule="nonzero"/><path fill="#38b6ff" d="M 105.695312 185.933594 C 103.367188 185.933594 101.472656 187.828125 101.472656 190.160156 C 101.472656 192.191406 104.726562 196.792969 105.695312 198.117188 C 106.664062 196.792969 109.917969 192.191406 109.917969 190.160156 C 109.917969 187.828125 108.023438 185.933594 105.695312 185.933594 Z M 105.695312 192.675781 C 104.308594 192.675781 103.175781 191.546875 103.175781 190.160156 C 103.175781 188.769531 104.308594 187.640625 105.695312 187.640625 C 107.082031 187.640625 108.210938 188.769531 108.210938 190.160156 C 108.210938 191.546875 107.082031 192.675781 105.695312 192.675781 Z M 105.695312 192.675781 " fill-opacity="1" fill-rule="nonzero"/><g clip-path="url(#8c7fafd600)"><path fill="#38b6ff" d="M 125.039062 180.308594 C 125.269531 179.691406 125.410156 179.128906 125.410156 178.671875 C 125.410156 175.96875 123.210938 173.773438 120.511719 173.773438 C 117.8125 173.773438 115.617188 175.96875 115.617188 178.671875 C 115.617188 179.601562 116.183594 180.949219 116.921875 182.308594 C 116.339844 183.027344 115.769531 183.621094 114.933594 183.832031 C 113.480469 184.191406 111.867188 184.011719 110.917969 183.382812 C 110.492188 183.101562 110.246094 182.761719 110.183594 182.371094 C 110.0625 181.589844 110.667969 181.050781 111.304688 180.480469 C 111.753906 180.078125 112.21875 179.660156 112.433594 179.132812 C 112.964844 177.808594 111.910156 175.144531 110.894531 174.664062 C 110.363281 174.414062 109.53125 174.472656 108.648438 174.535156 C 107.992188 174.582031 107.316406 174.628906 106.917969 174.523438 C 106.59375 174.433594 106.265625 174.101562 105.890625 173.714844 C 105.324219 173.136719 104.625 172.417969 103.566406 172.25 C 102.769531 172.207031 102.042969 172.210938 101.472656 172.324219 C 101.472656 169.625 99.273438 167.429688 96.574219 167.429688 C 93.917969 167.429688 91.746094 169.5625 91.683594 172.203125 C 90.445312 171.945312 89.15625 171.835938 88.386719 172.492188 C 86.703125 173.929688 86.796875 180.179688 87.273438 181.824219 C 87.558594 182.820312 88.367188 183.582031 89.144531 184.316406 C 89.765625 184.902344 90.347656 185.453125 90.671875 186.09375 C 90.996094 186.742188 91.339844 188.40625 91.703125 190.167969 C 92.175781 192.460938 92.710938 195.054688 93.402344 196.429688 C 94.152344 197.914062 95.488281 198.9375 96.664062 199.839844 C 97.464844 200.453125 98.21875 201.03125 98.6875 201.667969 C 99.007812 202.105469 99.277344 202.761719 99.566406 203.457031 C 100.320312 205.285156 101.261719 207.5625 103.839844 207.5625 C 106.335938 207.5625 107.078125 205.5 107.617188 203.988281 C 107.851562 203.335938 108.074219 202.71875 108.378906 202.398438 C 109.429688 201.28125 111.902344 200.855469 112.859375 201.625 C 113.179688 201.882812 113.515625 202.558594 113.871094 203.273438 C 114.65625 204.855469 115.730469 207.023438 117.875 207.023438 C 120.113281 207.023438 121.011719 204.269531 121.671875 202.261719 C 121.941406 201.4375 122.195312 200.65625 122.460938 200.332031 C 122.796875 199.917969 123.285156 199.539062 123.804688 199.140625 C 124.726562 198.433594 125.773438 197.628906 126.324219 196.324219 C 126.835938 195.105469 126.46875 193.679688 126.144531 192.421875 C 125.914062 191.527344 125.695312 190.683594 125.804688 190.023438 C 125.910156 189.367188 126.597656 188.695312 127.328125 187.988281 C 128.292969 187.046875 129.382812 185.984375 129.382812 184.625 C 129.382812 183.113281 127.246094 181.347656 125.039062 180.308594 Z M 96.574219 180.285156 C 95.605469 178.960938 92.351562 174.359375 92.351562 172.324219 C 92.351562 169.996094 94.246094 168.101562 96.574219 168.101562 C 98.902344 168.101562 100.796875 169.996094 100.796875 172.324219 C 100.796875 174.359375 97.542969 178.960938 96.574219 180.285156 Z M 105.964844 198.886719 C 105.898438 198.972656 105.800781 199.019531 105.695312 199.019531 C 105.589844 199.019531 105.492188 198.972656 105.425781 198.886719 C 105.238281 198.636719 100.796875 192.761719 100.796875 190.160156 C 100.796875 187.457031 102.996094 185.261719 105.695312 185.261719 C 108.394531 185.261719 110.589844 187.457031 110.589844 190.160156 C 110.589844 192.761719 106.152344 198.636719 105.964844 198.886719 Z M 120.511719 186.628906 C 119.542969 185.304688 116.289062 180.703125 116.289062 178.671875 C 116.289062 176.339844 118.183594 174.445312 120.511719 174.445312 C 122.839844 174.445312 124.734375 176.339844 124.734375 178.671875 C 124.734375 180.703125 121.480469 185.304688 120.511719 186.628906 Z M 120.511719 186.628906 " fill-opacity="1" fill-rule="nonzero"/></g><g fill="#004aad" fill-opacity="1"><g transform="translate(136.946451, 192.374987)"><g><path d="M 3.046875 0.265625 L 4.082031 0.265625 C 2.738281 -1.484375 2.074219 -3.652344 2.074219 -5.824219 C 2.074219 -8.050781 2.773438 -10.222656 4.097656 -11.964844 L 3.027344 -11.964844 C 1.675781 -10.339844 1.0625 -7.925781 1.0625 -5.851562 C 1.0625 -3.957031 1.785156 -1.121094 3.046875 0.265625 Z M 3.046875 0.265625 "/></g></g></g><g fill="#004aad" fill-opacity="1"><g transform="translate(141.592752, 192.374987)"><g><path d="M 1.410156 3.632812 L 2.65625 3.632812 L 2.65625 -1.128906 C 3.21875 -0.296875 4.125 0.164062 5.195312 0.164062 C 7.417969 0.164062 8.570312 -1.800781 8.570312 -4.148438 C 8.570312 -6.523438 7.410156 -8.464844 5.1875 -8.464844 C 4.074219 -8.464844 3.195312 -7.957031 2.65625 -7.160156 L 2.65625 -8.289062 L 1.410156 -8.289062 Z M 4.929688 -0.878906 C 3.246094 -0.878906 2.539062 -2.457031 2.539062 -4.148438 C 2.539062 -5.824219 3.246094 -7.417969 4.929688 -7.417969 C 6.589844 -7.417969 7.328125 -5.824219 7.328125 -4.148438 C 7.328125 -2.457031 6.589844 -0.878906 4.929688 -0.878906 Z M 4.929688 -0.878906 "/></g></g></g><g fill="#004aad" fill-opacity="1"><g transform="translate(150.960026, 192.374987)"><g><path d="M 4.621094 0.164062 C 6.953125 0.164062 8.570312 -1.800781 8.570312 -4.164062 C 8.570312 -6.523438 6.953125 -8.464844 4.621094 -8.464844 C 2.28125 -8.464844 0.714844 -6.523438 0.714844 -4.164062 C 0.714844 -1.800781 2.28125 0.164062 4.621094 0.164062 Z M 4.628906 -0.863281 C 2.804688 -0.863281 1.957031 -2.488281 1.957031 -4.164062 C 1.957031 -5.824219 2.804688 -7.433594 4.648438 -7.433594 C 6.488281 -7.433594 7.320312 -5.824219 7.320312 -4.164062 C 7.320312 -2.523438 6.488281 -0.863281 4.628906 -0.863281 Z M 4.628906 -0.863281 "/></g></g></g><g fill="#004aad" fill-opacity="1"><g transform="translate(160.244331, 192.374987)"><g><path d="M 1.394531 0 L 2.628906 0 L 2.628906 -4.308594 C 2.628906 -6.363281 3.667969 -7.386719 4.972656 -7.386719 C 6.429688 -7.386719 6.855469 -6.058594 6.855469 -4.914062 L 6.855469 0 L 8.082031 0 L 8.082031 -5.035156 C 8.082031 -6.863281 7.277344 -8.4375 5.300781 -8.4375 C 4.097656 -8.4375 3.179688 -7.816406 2.628906 -6.847656 L 2.628906 -8.289062 L 1.394531 -8.289062 Z M 1.394531 0 "/></g></g></g><g fill="#004aad" fill-opacity="1"><g transform="translate(169.528636, 192.374987)"><g><path d="M 3.699219 0.164062 C 4.207031 0.164062 4.628906 0.0742188 4.8125 0 L 4.8125 -1.0625 C 4.554688 -0.9375 4.257812 -0.855469 3.984375 -0.855469 C 3.378906 -0.855469 2.929688 -1.277344 2.929688 -2.191406 L 2.929688 -7.277344 L 5.027344 -7.277344 L 5.027344 -8.289062 L 2.929688 -8.289062 L 2.929688 -11.320312 L 1.699219 -10.15625 L 1.699219 -8.289062 L 0.363281 -8.289062 L 0.363281 -7.277344 L 1.691406 -7.277344 L 1.691406 -2.199219 C 1.691406 -0.78125 2.230469 0.164062 3.699219 0.164062 Z M 3.699219 0.164062 "/></g></g></g><g fill="#004aad" fill-opacity="1"><g transform="translate(175.112494, 192.374987)"><g><path d="M 4.621094 0.164062 C 6.953125 0.164062 8.570312 -1.800781 8.570312 -4.164062 C 8.570312 -6.523438 6.953125 -8.464844 4.621094 -8.464844 C 2.28125 -8.464844 0.714844 -6.523438 0.714844 -4.164062 C 0.714844 -1.800781 2.28125 0.164062 4.621094 0.164062 Z M 4.628906 -0.863281 C 2.804688 -0.863281 1.957031 -2.488281 1.957031 -4.164062 C 1.957031 -5.824219 2.804688 -7.433594 4.648438 -7.433594 C 6.488281 -7.433594 7.320312 -5.824219 7.320312 -4.164062 C 7.320312 -2.523438 6.488281 -0.863281 4.628906 -0.863281 Z M 4.628906 -0.863281 "/></g></g></g><g fill="#004aad" fill-opacity="1"><g transform="translate(184.396799, 192.374987)"><g><path d="M 3.691406 0.164062 C 5.128906 0.164062 6.539062 -0.65625 6.539062 -2.363281 C 6.539062 -5.410156 2.066406 -4.40625 2.066406 -6.316406 C 2.066406 -6.996094 2.621094 -7.460938 3.519531 -7.460938 C 4.40625 -7.460938 5.011719 -7.011719 5.367188 -6.289062 L 6.28125 -6.8125 C 5.777344 -7.800781 4.839844 -8.464844 3.558594 -8.464844 C 2.148438 -8.464844 0.929688 -7.660156 0.929688 -6.164062 C 0.929688 -3.351562 5.335938 -4.449219 5.335938 -2.214844 C 5.335938 -1.320312 4.648438 -0.847656 3.710938 -0.847656 C 2.597656 -0.847656 1.933594 -1.542969 1.644531 -2.421875 L 0.597656 -1.882812 C 0.980469 -0.789062 2.132812 0.164062 3.691406 0.164062 Z M 3.691406 0.164062 "/></g></g></g><g fill="#004aad" fill-opacity="1"><g transform="translate(191.598566, 192.374987)"><g/></g></g><g fill="#004aad" fill-opacity="1"><g transform="translate(196.087224, 192.374987)"><g><path d="M 3.699219 0.164062 C 4.207031 0.164062 4.628906 0.0742188 4.8125 0 L 4.8125 -1.0625 C 4.554688 -0.9375 4.257812 -0.855469 3.984375 -0.855469 C 3.378906 -0.855469 2.929688 -1.277344 2.929688 -2.191406 L 2.929688 -7.277344 L 5.027344 -7.277344 L 5.027344 -8.289062 L 2.929688 -8.289062 L 2.929688 -11.320312 L 1.699219 -10.15625 L 1.699219 -8.289062 L 0.363281 -8.289062 L 0.363281 -7.277344 L 1.691406 -7.277344 L 1.691406 -2.199219 C 1.691406 -0.78125 2.230469 0.164062 3.699219 0.164062 Z M 3.699219 0.164062 "/></g></g></g><g fill="#004aad" fill-opacity="1"><g transform="translate(201.671083, 192.374987)"><g><path d="M 4.03125 0.183594 C 5.34375 0.183594 6.308594 -0.6875 6.636719 -1.402344 L 6.636719 0 L 7.867188 0 L 7.867188 -8.289062 L 6.636719 -8.289062 L 6.636719 -3.699219 C 6.636719 -2.074219 5.492188 -0.863281 4.164062 -0.863281 C 2.746094 -0.863281 2.421875 -2.199219 2.421875 -3.394531 L 2.421875 -8.289062 L 1.1875 -8.289062 L 1.1875 -3.476562 C 1.1875 -1.410156 1.992188 0.183594 4.03125 0.183594 Z M 4.03125 0.183594 "/></g></g></g><g fill="#004aad" fill-opacity="1"><g transform="translate(210.938794, 192.374987)"><g><path d="M 1.394531 0 L 2.613281 0 L 2.613281 -4.140625 C 2.613281 -6.140625 3.46875 -7.277344 4.878906 -7.277344 C 5.269531 -7.277344 5.617188 -7.195312 5.890625 -6.960938 L 6.414062 -8.03125 C 6.109375 -8.273438 5.652344 -8.464844 5.078125 -8.464844 C 4.03125 -8.464844 3.0625 -7.832031 2.628906 -6.820312 L 2.628906 -8.289062 L 1.394531 -8.289062 Z M 1.394531 0 "/></g></g></g><g fill="#004aad" fill-opacity="1"><g transform="translate(217.534882, 192.374987)"><g><path d="M 1.285156 -9.328125 L 2.390625 -9.328125 L 4.6875 -11.726562 L 3.085938 -11.726562 Z M 1.394531 0 L 2.761719 0 L 2.761719 -8.289062 L 1.394531 -8.289062 Z M 1.394531 0 "/></g></g></g><g fill="#004aad" fill-opacity="1"><g transform="translate(221.691662, 192.374987)"><g><path d="M 3.691406 0.164062 C 5.128906 0.164062 6.539062 -0.65625 6.539062 -2.363281 C 6.539062 -5.410156 2.066406 -4.40625 2.066406 -6.316406 C 2.066406 -6.996094 2.621094 -7.460938 3.519531 -7.460938 C 4.40625 -7.460938 5.011719 -7.011719 5.367188 -6.289062 L 6.28125 -6.8125 C 5.777344 -7.800781 4.839844 -8.464844 3.558594 -8.464844 C 2.148438 -8.464844 0.929688 -7.660156 0.929688 -6.164062 C 0.929688 -3.351562 5.335938 -4.449219 5.335938 -2.214844 C 5.335938 -1.320312 4.648438 -0.847656 3.710938 -0.847656 C 2.597656 -0.847656 1.933594 -1.542969 1.644531 -2.421875 L 0.597656 -1.882812 C 0.980469 -0.789062 2.132812 0.164062 3.691406 0.164062 Z M 3.691406 0.164062 "/></g></g></g><g fill="#004aad" fill-opacity="1"><g transform="translate(228.893428, 192.374987)"><g><path d="M 3.699219 0.164062 C 4.207031 0.164062 4.628906 0.0742188 4.8125 0 L 4.8125 -1.0625 C 4.554688 -0.9375 4.257812 -0.855469 3.984375 -0.855469 C 3.378906 -0.855469 2.929688 -1.277344 2.929688 -2.191406 L 2.929688 -7.277344 L 5.027344 -7.277344 L 5.027344 -8.289062 L 2.929688 -8.289062 L 2.929688 -11.320312 L 1.699219 -10.15625 L 1.699219 -8.289062 L 0.363281 -8.289062 L 0.363281 -7.277344 L 1.691406 -7.277344 L 1.691406 -2.199219 C 1.691406 -0.78125 2.230469 0.164062 3.699219 0.164062 Z M 3.699219 0.164062 "/></g></g></g><g fill="#004aad" fill-opacity="1"><g transform="translate(234.477286, 192.374987)"><g><path d="M 1.320312 -10.132812 L 2.730469 -10.132812 L 2.730469 -11.726562 L 1.320312 -11.726562 Z M 1.410156 0 L 2.640625 0 L 2.640625 -8.289062 L 1.410156 -8.289062 Z M 1.410156 0 "/></g></g></g><g fill="#004aad" fill-opacity="1"><g transform="translate(238.526206, 192.374987)"><g><path d="M 4.363281 0.164062 C 5.867188 0.164062 6.996094 -0.65625 7.484375 -2.03125 L 6.40625 -2.496094 C 6.15625 -1.519531 5.351562 -0.878906 4.347656 -0.878906 C 2.613281 -0.878906 2.03125 -2.613281 2.03125 -4.132812 C 2.03125 -5.625 2.628906 -7.417969 4.347656 -7.417969 C 5.34375 -7.417969 6.15625 -6.761719 6.40625 -5.757812 L 7.578125 -6.257812 C 6.996094 -7.625 5.851562 -8.464844 4.347656 -8.464844 C 1.957031 -8.464844 0.761719 -6.355469 0.761719 -4.132812 C 0.761719 -1.882812 1.976562 0.164062 4.363281 0.164062 Z M 4.363281 0.164062 "/></g></g></g><g fill="#004aad" fill-opacity="1"><g transform="translate(246.607451, 192.374987)"><g><path d="M 4.621094 0.164062 C 6.953125 0.164062 8.570312 -1.800781 8.570312 -4.164062 C 8.570312 -6.523438 6.953125 -8.464844 4.621094 -8.464844 C 2.28125 -8.464844 0.714844 -6.523438 0.714844 -4.164062 C 0.714844 -1.800781 2.28125 0.164062 4.621094 0.164062 Z M 4.628906 -0.863281 C 2.804688 -0.863281 1.957031 -2.488281 1.957031 -4.164062 C 1.957031 -5.824219 2.804688 -7.433594 4.648438 -7.433594 C 6.488281 -7.433594 7.320312 -5.824219 7.320312 -4.164062 C 7.320312 -2.523438 6.488281 -0.863281 4.628906 -0.863281 Z M 4.628906 -0.863281 "/></g></g></g><g fill="#004aad" fill-opacity="1"><g transform="translate(255.891756, 192.374987)"><g><path d="M 3.691406 0.164062 C 5.128906 0.164062 6.539062 -0.65625 6.539062 -2.363281 C 6.539062 -5.410156 2.066406 -4.40625 2.066406 -6.316406 C 2.066406 -6.996094 2.621094 -7.460938 3.519531 -7.460938 C 4.40625 -7.460938 5.011719 -7.011719 5.367188 -6.289062 L 6.28125 -6.8125 C 5.777344 -7.800781 4.839844 -8.464844 3.558594 -8.464844 C 2.148438 -8.464844 0.929688 -7.660156 0.929688 -6.164062 C 0.929688 -3.351562 5.335938 -4.449219 5.335938 -2.214844 C 5.335938 -1.320312 4.648438 -0.847656 3.710938 -0.847656 C 2.597656 -0.847656 1.933594 -1.542969 1.644531 -2.421875 L 0.597656 -1.882812 C 0.980469 -0.789062 2.132812 0.164062 3.691406 0.164062 Z M 3.691406 0.164062 "/></g></g></g><g fill="#004aad" fill-opacity="1"><g transform="translate(263.093522, 192.374987)"><g><path d="M 0.5625 0.265625 L 1.601562 0.265625 C 2.847656 -1.078125 3.585938 -3.917969 3.585938 -5.867188 C 3.585938 -8.050781 2.960938 -10.382812 1.609375 -11.964844 L 0.546875 -11.964844 C 1.808594 -10.28125 2.574219 -7.964844 2.574219 -5.84375 C 2.574219 -3.71875 1.882812 -1.484375 0.5625 0.265625 Z M 0.5625 0.265625 "/></g></g></g></svg>