<svg xmlns="http://www.w3.org/2000/svg" xmlns:xlink="http://www.w3.org/1999/xlink" width="500" zoomAndPan="magnify" viewBox="0 0 375 374.999991" height="500" preserveAspectRatio="xMidYMid meet" version="1.0"><defs><g/><clipPath id="614d472366"><path d="M 120 173.011719 L 153 173.011719 L 153 191 L 120 191 Z M 120 173.011719 " clip-rule="nonzero"/></clipPath><clipPath id="2b7c84f5da"><path d="M 116.433594 179 L 122 179 L 122 183 L 116.433594 183 Z M 116.433594 179 " clip-rule="nonzero"/></clipPath><clipPath id="3a5151e27b"><path d="M 150 179 L 156.183594 179 L 156.183594 183 L 150 183 Z M 150 179 " clip-rule="nonzero"/></clipPath><clipPath id="7f78dda2da"><path d="M 116.433594 182 L 156 182 L 156 199 L 116.433594 199 Z M 116.433594 182 " clip-rule="nonzero"/></clipPath><clipPath id="562a0c9331"><path d="M 116.433594 194 L 124 194 L 124 202 L 116.433594 202 Z M 116.433594 194 " clip-rule="nonzero"/></clipPath></defs><g clip-path="url(#614d472366)"><path fill="#38b6ff" d="M 142.003906 190.464844 L 130.710938 190.464844 C 129.863281 190.46875 129.046875 190.304688 128.261719 189.980469 C 127.476562 189.65625 126.785156 189.195312 126.1875 188.589844 L 122.710938 185.121094 C 122.039062 184.441406 121.242188 183.972656 120.324219 183.714844 C 120.148438 183.664062 120.050781 183.546875 120.027344 183.367188 C 120.003906 183.1875 120.070312 183.050781 120.230469 182.957031 C 120.453125 182.832031 120.644531 182.664062 120.800781 182.460938 C 120.855469 182.390625 120.898438 182.316406 120.9375 182.234375 L 121.285156 181.601562 L 124.804688 175.089844 C 125.128906 174.492188 125.582031 174.019531 126.167969 173.671875 C 126.75 173.324219 127.382812 173.148438 128.0625 173.148438 L 144.640625 173.148438 C 145.320312 173.148438 145.953125 173.324219 146.535156 173.671875 C 147.121094 174.019531 147.574219 174.492188 147.898438 175.089844 L 151.757812 182.226562 C 151.804688 182.3125 151.859375 182.394531 151.917969 182.472656 C 152.070312 182.675781 152.257812 182.835938 152.476562 182.957031 C 152.636719 183.050781 152.703125 183.183594 152.683594 183.363281 C 152.664062 183.546875 152.566406 183.660156 152.390625 183.714844 C 151.472656 183.976562 150.679688 184.445312 150.003906 185.121094 L 146.527344 188.589844 C 145.925781 189.191406 145.234375 189.652344 144.449219 189.976562 C 143.667969 190.300781 142.851562 190.460938 142.003906 190.464844 Z M 121.277344 183.175781 C 122.039062 183.496094 122.714844 183.949219 123.296875 184.535156 L 126.773438 188.007812 C 127.292969 188.53125 127.894531 188.9375 128.578125 189.21875 C 129.261719 189.503906 129.972656 189.644531 130.710938 189.640625 L 142.003906 189.640625 C 142.742188 189.640625 143.453125 189.496094 144.132812 189.214844 C 144.816406 188.933594 145.417969 188.53125 145.9375 188.007812 L 149.417969 184.539062 C 150 183.957031 150.671875 183.503906 151.433594 183.183594 C 151.371094 183.113281 151.308594 183.042969 151.253906 182.96875 C 151.171875 182.859375 151.097656 182.742188 151.03125 182.621094 L 147.171875 175.484375 C 146.917969 175.019531 146.566406 174.652344 146.113281 174.382812 C 145.660156 174.113281 145.167969 173.976562 144.640625 173.976562 L 128.0625 173.976562 C 127.535156 173.976562 127.042969 174.113281 126.589844 174.382812 C 126.136719 174.652344 125.785156 175.019531 125.53125 175.484375 L 121.675781 182.613281 C 121.613281 182.738281 121.542969 182.855469 121.460938 182.964844 C 121.402344 183.039062 121.339844 183.109375 121.277344 183.175781 Z M 121.277344 183.175781 " fill-opacity="1" fill-rule="nonzero"/></g><g clip-path="url(#2b7c84f5da)"><path fill="#38b6ff" d="M 121.339844 182.78125 C 121.328125 182.78125 121.320312 182.78125 121.308594 182.78125 L 117.832031 182.535156 C 117.5625 182.519531 117.3125 182.429688 117.09375 182.265625 C 116.875 182.105469 116.714844 181.898438 116.613281 181.644531 C 116.511719 181.390625 116.488281 181.128906 116.539062 180.859375 C 116.589844 180.59375 116.707031 180.359375 116.894531 180.160156 C 117.148438 179.882812 117.464844 179.734375 117.835938 179.710938 L 120.425781 179.527344 C 120.816406 179.5 121.15625 179.617188 121.441406 179.886719 C 121.722656 180.15625 121.867188 180.484375 121.867188 180.875 L 121.867188 182.15625 C 121.867188 182.226562 121.851562 182.292969 121.816406 182.355469 L 121.699219 182.566406 C 121.621094 182.707031 121.5 182.78125 121.339844 182.78125 Z M 121.453125 182.15625 Z M 120.519531 180.351562 C 120.507812 180.351562 120.496094 180.351562 120.480469 180.351562 L 117.890625 180.535156 C 117.734375 180.542969 117.605469 180.605469 117.5 180.722656 C 117.394531 180.835938 117.339844 180.96875 117.339844 181.121094 C 117.34375 181.277344 117.394531 181.410156 117.5 181.523438 C 117.605469 181.636719 117.738281 181.699219 117.890625 181.710938 L 121.039062 181.929688 L 121.039062 180.875 C 121.039062 180.730469 120.988281 180.605469 120.886719 180.503906 C 120.785156 180.402344 120.664062 180.351562 120.519531 180.351562 Z M 120.519531 180.351562 " fill-opacity="1" fill-rule="nonzero"/></g><g clip-path="url(#3a5151e27b)"><path fill="#38b6ff" d="M 151.367188 182.78125 C 151.203125 182.78125 151.082031 182.710938 151.003906 182.566406 L 150.898438 182.371094 C 150.863281 182.308594 150.847656 182.242188 150.847656 182.171875 L 150.847656 180.875 C 150.847656 180.6875 150.882812 180.507812 150.957031 180.335938 C 151.03125 180.164062 151.136719 180.015625 151.273438 179.886719 C 151.410156 179.761719 151.566406 179.664062 151.742188 179.601562 C 151.917969 179.539062 152.101562 179.515625 152.289062 179.527344 L 154.878906 179.710938 C 155.058594 179.722656 155.226562 179.769531 155.390625 179.847656 C 155.550781 179.921875 155.691406 180.027344 155.8125 180.160156 C 155.9375 180.289062 156.03125 180.4375 156.09375 180.605469 C 156.160156 180.769531 156.195312 180.945312 156.195312 181.121094 C 156.195312 181.300781 156.160156 181.472656 156.09375 181.640625 C 156.027344 181.808594 155.933594 181.957031 155.8125 182.085938 C 155.691406 182.21875 155.550781 182.320312 155.390625 182.398438 C 155.226562 182.476562 155.058594 182.523438 154.878906 182.535156 L 151.394531 182.777344 C 151.386719 182.78125 151.375 182.78125 151.367188 182.78125 Z M 152.191406 180.351562 C 152.046875 180.351562 151.925781 180.402344 151.824219 180.503906 C 151.722656 180.605469 151.671875 180.730469 151.671875 180.875 L 151.671875 181.929688 L 154.820312 181.710938 C 154.976562 181.699219 155.105469 181.636719 155.210938 181.523438 C 155.3125 181.410156 155.367188 181.277344 155.367188 181.121094 C 155.367188 180.96875 155.316406 180.835938 155.210938 180.722656 C 155.105469 180.609375 154.976562 180.546875 154.824219 180.535156 L 152.230469 180.351562 Z M 152.191406 180.351562 " fill-opacity="1" fill-rule="nonzero"/></g><path fill="#38b6ff" d="M 147.675781 182.050781 L 125.035156 182.050781 C 124.960938 182.054688 124.894531 182.035156 124.828125 182 C 124.765625 181.960938 124.714844 181.914062 124.679688 181.851562 C 124.640625 181.789062 124.621094 181.722656 124.621094 181.648438 C 124.617188 181.574219 124.636719 181.507812 124.671875 181.441406 L 127.320312 176.546875 C 127.503906 176.203125 127.761719 175.933594 128.097656 175.734375 C 128.429688 175.535156 128.792969 175.4375 129.179688 175.4375 L 143.527344 175.4375 C 143.914062 175.4375 144.277344 175.535156 144.609375 175.734375 C 144.945312 175.933594 145.203125 176.203125 145.390625 176.546875 L 148.039062 181.441406 C 148.074219 181.507812 148.089844 181.574219 148.089844 181.648438 C 148.085938 181.71875 148.066406 181.789062 148.03125 181.851562 C 147.992188 181.914062 147.945312 181.960938 147.878906 182 C 147.816406 182.035156 147.75 182.050781 147.675781 182.050781 Z M 125.730469 181.226562 L 146.980469 181.226562 L 144.660156 176.941406 C 144.417969 176.488281 144.039062 176.261719 143.527344 176.265625 L 129.179688 176.265625 C 128.667969 176.261719 128.289062 176.488281 128.046875 176.941406 Z M 125.730469 181.226562 " fill-opacity="1" fill-rule="nonzero"/><g clip-path="url(#7f78dda2da)"><path fill="#38b6ff" d="M 151.566406 198.835938 L 146.960938 198.835938 C 146.738281 198.835938 146.53125 198.777344 146.339844 198.660156 C 146.152344 198.542969 146.007812 198.386719 145.90625 198.1875 C 145.839844 198.054688 145.734375 197.988281 145.589844 197.988281 L 127.121094 197.988281 C 126.976562 197.988281 126.871094 198.054688 126.804688 198.183594 C 126.703125 198.382812 126.558594 198.542969 126.367188 198.660156 C 126.179688 198.777344 125.972656 198.835938 125.75 198.835938 L 121.144531 198.835938 C 120.859375 198.835938 120.574219 198.808594 120.292969 198.753906 C 120.011719 198.699219 119.738281 198.617188 119.476562 198.507812 C 119.210938 198.398438 118.960938 198.265625 118.722656 198.105469 C 118.484375 197.949219 118.261719 197.765625 118.058594 197.566406 C 117.859375 197.363281 117.679688 197.140625 117.519531 196.902344 C 117.359375 196.664062 117.226562 196.414062 117.117188 196.148438 C 117.007812 195.882812 116.929688 195.613281 116.875 195.332031 C 116.820312 195.050781 116.792969 194.765625 116.792969 194.480469 L 116.792969 187.753906 C 116.789062 187.25 116.863281 186.753906 117.011719 186.273438 C 117.160156 185.789062 117.375 185.339844 117.660156 184.921875 C 117.945312 184.503906 118.285156 184.140625 118.679688 183.828125 C 119.074219 183.511719 119.507812 183.265625 119.980469 183.082031 C 120.066406 183.046875 120.152344 183.007812 120.230469 182.960938 C 120.332031 182.902344 120.441406 182.890625 120.550781 182.921875 C 121.609375 183.222656 122.523438 183.761719 123.296875 184.539062 L 126.769531 188.007812 C 127.292969 188.527344 127.898438 188.929688 128.578125 189.210938 C 129.261719 189.496094 129.972656 189.636719 130.710938 189.640625 L 142.003906 189.640625 C 142.742188 189.636719 143.453125 189.496094 144.132812 189.210938 C 144.816406 188.929688 145.417969 188.527344 145.941406 188.007812 L 149.417969 184.535156 C 150.191406 183.761719 151.105469 183.222656 152.160156 182.917969 C 152.269531 182.886719 152.375 182.898438 152.476562 182.957031 C 152.492188 182.964844 152.535156 182.992188 152.550781 183.003906 C 152.59375 183.027344 152.660156 183.054688 152.730469 183.085938 C 153.199219 183.265625 153.632812 183.511719 154.03125 183.828125 C 154.425781 184.140625 154.765625 184.503906 155.050781 184.921875 C 155.335938 185.339844 155.550781 185.789062 155.699219 186.273438 C 155.847656 186.753906 155.921875 187.25 155.917969 187.753906 L 155.917969 194.480469 C 155.917969 194.765625 155.890625 195.046875 155.835938 195.328125 C 155.777344 195.609375 155.695312 195.882812 155.585938 196.144531 C 155.476562 196.410156 155.34375 196.660156 155.183594 196.898438 C 155.027344 197.136719 154.847656 197.355469 154.644531 197.558594 C 154.441406 197.757812 154.222656 197.941406 153.984375 198.097656 C 153.746094 198.257812 153.496094 198.390625 153.234375 198.5 C 152.96875 198.609375 152.695312 198.695312 152.417969 198.75 C 152.136719 198.804688 151.855469 198.835938 151.566406 198.835938 Z M 127.121094 197.164062 L 145.589844 197.164062 C 145.8125 197.164062 146.019531 197.21875 146.210938 197.335938 C 146.402344 197.453125 146.546875 197.613281 146.644531 197.8125 C 146.710938 197.945312 146.816406 198.007812 146.964844 198.007812 L 151.566406 198.007812 C 152.035156 198.007812 152.484375 197.917969 152.917969 197.738281 C 153.347656 197.558594 153.730469 197.304688 154.058594 196.972656 C 154.390625 196.640625 154.644531 196.261719 154.824219 195.828125 C 155.003906 195.398438 155.09375 194.945312 155.09375 194.480469 L 155.09375 187.753906 C 155.09375 187.332031 155.035156 186.917969 154.910156 186.515625 C 154.785156 186.113281 154.605469 185.734375 154.367188 185.386719 C 154.128906 185.039062 153.84375 184.734375 153.511719 184.472656 C 153.179688 184.210938 152.820312 184.003906 152.425781 183.851562 L 152.414062 183.847656 C 152.347656 183.820312 152.285156 183.792969 152.222656 183.765625 C 151.375 184.039062 150.632812 184.488281 150 185.121094 L 146.527344 188.589844 C 145.925781 189.191406 145.234375 189.652344 144.449219 189.976562 C 143.667969 190.300781 142.851562 190.464844 142.003906 190.464844 L 130.710938 190.464844 C 129.863281 190.464844 129.046875 190.300781 128.261719 189.976562 C 127.480469 189.652344 126.789062 189.191406 126.1875 188.589844 L 122.714844 185.121094 C 122.082031 184.484375 121.335938 184.03125 120.484375 183.761719 C 120.414062 183.796875 120.347656 183.824219 120.28125 183.851562 C 119.886719 184.003906 119.523438 184.210938 119.195312 184.472656 C 118.863281 184.734375 118.578125 185.039062 118.34375 185.386719 C 118.105469 185.738281 117.921875 186.113281 117.800781 186.515625 C 117.675781 186.917969 117.617188 187.332031 117.621094 187.753906 L 117.621094 194.480469 C 117.617188 194.949219 117.703125 195.398438 117.882812 195.832031 C 118.058594 196.265625 118.3125 196.648438 118.644531 196.980469 C 118.976562 197.3125 119.359375 197.566406 119.792969 197.746094 C 120.222656 197.921875 120.675781 198.011719 121.144531 198.007812 L 125.75 198.007812 C 125.894531 198.007812 126 197.945312 126.066406 197.8125 C 126.164062 197.613281 126.3125 197.457031 126.5 197.339844 C 126.691406 197.222656 126.898438 197.164062 127.121094 197.164062 Z M 127.121094 197.164062 " fill-opacity="1" fill-rule="nonzero"/></g><path fill="#38b6ff" d="M 121.003906 191.59375 C 120.609375 191.59375 120.230469 191.519531 119.863281 191.367188 C 119.5 191.214844 119.175781 191 118.898438 190.71875 C 118.617188 190.441406 118.402344 190.117188 118.253906 189.753906 C 118.101562 189.386719 118.027344 189.007812 118.027344 188.613281 C 118.027344 188.21875 118.101562 187.835938 118.253906 187.472656 C 118.40625 187.109375 118.621094 186.785156 118.902344 186.507812 C 119.179688 186.226562 119.503906 186.011719 119.867188 185.863281 C 120.234375 185.710938 120.613281 185.636719 121.007812 185.636719 C 121.402344 185.636719 121.785156 185.710938 122.148438 185.863281 C 122.511719 186.015625 122.835938 186.230469 123.113281 186.511719 C 123.394531 186.789062 123.609375 187.113281 123.757812 187.476562 C 123.910156 187.84375 123.984375 188.222656 123.984375 188.617188 C 123.984375 189.011719 123.90625 189.394531 123.757812 189.757812 C 123.605469 190.121094 123.390625 190.445312 123.109375 190.722656 C 122.832031 191 122.507812 191.21875 122.144531 191.367188 C 121.777344 191.519531 121.398438 191.59375 121.003906 191.59375 Z M 121.003906 186.460938 C 120.71875 186.460938 120.445312 186.515625 120.179688 186.625 C 119.917969 186.734375 119.683594 186.890625 119.484375 187.09375 C 119.28125 187.296875 119.125 187.527344 119.015625 187.792969 C 118.90625 188.054688 118.851562 188.332031 118.851562 188.617188 C 118.851562 188.902344 118.90625 189.175781 119.015625 189.4375 C 119.125 189.703125 119.28125 189.933594 119.484375 190.136719 C 119.683594 190.339844 119.917969 190.496094 120.179688 190.605469 C 120.445312 190.714844 120.71875 190.765625 121.003906 190.769531 C 121.289062 190.769531 121.566406 190.714844 121.828125 190.605469 C 122.09375 190.496094 122.324219 190.339844 122.527344 190.136719 C 122.730469 189.9375 122.882812 189.703125 122.992188 189.441406 C 123.101562 189.175781 123.15625 188.902344 123.15625 188.617188 C 123.15625 188.332031 123.101562 188.054688 122.992188 187.792969 C 122.882812 187.527344 122.730469 187.296875 122.527344 187.09375 C 122.324219 186.890625 122.09375 186.734375 121.828125 186.625 C 121.5625 186.515625 121.289062 186.460938 121.003906 186.460938 Z M 121.003906 186.460938 " fill-opacity="1" fill-rule="nonzero"/><path fill="#38b6ff" d="M 151.703125 191.59375 C 151.308594 191.59375 150.929688 191.519531 150.5625 191.367188 C 150.199219 191.214844 149.875 191 149.597656 190.71875 C 149.316406 190.441406 149.101562 190.117188 148.953125 189.753906 C 148.800781 189.386719 148.726562 189.007812 148.726562 188.613281 C 148.726562 188.21875 148.800781 187.835938 148.953125 187.472656 C 149.105469 187.109375 149.320312 186.785156 149.601562 186.507812 C 149.878906 186.226562 150.203125 186.011719 150.566406 185.863281 C 150.933594 185.710938 151.3125 185.636719 151.707031 185.636719 C 152.101562 185.636719 152.484375 185.710938 152.847656 185.863281 C 153.214844 186.015625 153.535156 186.230469 153.8125 186.511719 C 154.09375 186.789062 154.308594 187.113281 154.457031 187.476562 C 154.609375 187.84375 154.683594 188.222656 154.683594 188.617188 C 154.683594 189.011719 154.609375 189.394531 154.457031 189.757812 C 154.304688 190.121094 154.089844 190.445312 153.808594 190.722656 C 153.53125 191.003906 153.207031 191.21875 152.84375 191.367188 C 152.476562 191.519531 152.097656 191.59375 151.703125 191.59375 Z M 151.703125 186.460938 C 151.417969 186.460938 151.144531 186.515625 150.878906 186.628906 C 150.617188 186.738281 150.382812 186.890625 150.183594 187.09375 C 149.980469 187.296875 149.824219 187.527344 149.714844 187.792969 C 149.605469 188.054688 149.550781 188.332031 149.550781 188.617188 C 149.550781 188.902344 149.605469 189.175781 149.714844 189.4375 C 149.824219 189.703125 149.980469 189.9375 150.183594 190.136719 C 150.386719 190.339844 150.617188 190.496094 150.882812 190.605469 C 151.144531 190.714844 151.417969 190.769531 151.703125 190.769531 C 151.988281 190.769531 152.265625 190.714844 152.527344 190.605469 C 152.792969 190.496094 153.023438 190.339844 153.226562 190.136719 C 153.429688 189.9375 153.585938 189.703125 153.691406 189.441406 C 153.800781 189.175781 153.859375 188.902344 153.859375 188.617188 C 153.859375 188.332031 153.804688 188.054688 153.695312 187.792969 C 153.585938 187.527344 153.429688 187.296875 153.226562 187.09375 C 153.023438 186.890625 152.792969 186.734375 152.527344 186.625 C 152.261719 186.515625 151.988281 186.460938 151.703125 186.460938 Z M 151.703125 186.460938 " fill-opacity="1" fill-rule="nonzero"/><path fill="#38b6ff" d="M 144.796875 195.671875 L 127.894531 195.671875 C 126.039062 195.671875 124.433594 194.285156 123.546875 192.988281 C 123.488281 192.902344 123.460938 192.808594 123.457031 192.703125 C 123.457031 192.566406 123.507812 192.449219 123.605469 192.351562 C 123.703125 192.253906 123.820312 192.207031 123.957031 192.207031 L 148.753906 192.207031 C 148.949219 192.207031 149.09375 192.292969 149.1875 192.460938 C 149.285156 192.632812 149.28125 192.800781 149.179688 192.964844 C 149.171875 192.976562 149.167969 192.984375 149.160156 192.996094 C 148.261719 194.289062 146.644531 195.671875 144.796875 195.671875 Z M 124.617188 193.03125 C 125.402344 193.972656 126.589844 194.847656 127.898438 194.847656 L 144.796875 194.847656 C 146.097656 194.847656 147.285156 193.980469 148.089844 193.03125 Z M 148.753906 193.03125 Z M 148.484375 192.519531 C 148.480469 192.523438 148.472656 192.53125 148.46875 192.539062 C 148.472656 192.53125 148.480469 192.523438 148.484375 192.519531 Z M 148.484375 192.519531 " fill-opacity="1" fill-rule="nonzero"/><g clip-path="url(#562a0c9331)"><path fill="#38b6ff" d="M 121.996094 201.882812 L 118.1875 201.882812 C 118.003906 201.882812 117.824219 201.847656 117.652344 201.777344 C 117.480469 201.707031 117.332031 201.605469 117.199219 201.472656 C 117.066406 201.34375 116.964844 201.191406 116.894531 201.019531 C 116.824219 200.847656 116.789062 200.671875 116.789062 200.484375 L 116.789062 194.425781 C 116.789062 194.3125 116.828125 194.214844 116.910156 194.136719 C 116.992188 194.054688 117.089844 194.015625 117.203125 194.015625 C 117.316406 194.015625 117.414062 194.054688 117.496094 194.136719 C 117.574219 194.214844 117.617188 194.3125 117.617188 194.425781 C 117.613281 194.894531 117.703125 195.34375 117.882812 195.777344 C 118.0625 196.210938 118.316406 196.59375 118.648438 196.921875 C 118.976562 197.253906 119.359375 197.507812 119.792969 197.6875 C 120.226562 197.867188 120.675781 197.953125 121.144531 197.953125 L 122.984375 197.953125 C 123.097656 197.953125 123.195312 197.992188 123.277344 198.074219 C 123.355469 198.15625 123.398438 198.253906 123.398438 198.367188 L 123.398438 200.484375 C 123.394531 200.671875 123.359375 200.847656 123.289062 201.019531 C 123.21875 201.191406 123.117188 201.34375 122.984375 201.472656 C 122.855469 201.605469 122.703125 201.707031 122.53125 201.777344 C 122.359375 201.847656 122.179688 201.882812 121.996094 201.882812 Z M 117.617188 196.980469 L 117.617188 200.484375 C 117.617188 200.640625 117.671875 200.777344 117.785156 200.886719 C 117.894531 201 118.03125 201.054688 118.1875 201.054688 L 121.996094 201.054688 C 122.152344 201.054688 122.289062 201 122.398438 200.886719 C 122.511719 200.777344 122.566406 200.640625 122.566406 200.484375 L 122.566406 198.78125 L 121.144531 198.78125 C 119.941406 198.785156 118.914062 198.359375 118.0625 197.507812 C 117.902344 197.34375 117.75 197.167969 117.617188 196.980469 Z M 117.617188 196.980469 " fill-opacity="1" fill-rule="nonzero"/></g><path fill="#38b6ff" d="M 154.523438 201.882812 L 150.714844 201.882812 C 150.53125 201.882812 150.351562 201.847656 150.179688 201.777344 C 150.007812 201.707031 149.859375 201.605469 149.726562 201.472656 C 149.59375 201.34375 149.496094 201.191406 149.421875 201.019531 C 149.351562 200.847656 149.316406 200.671875 149.316406 200.484375 L 149.316406 198.367188 C 149.316406 198.253906 149.355469 198.15625 149.4375 198.074219 C 149.519531 197.992188 149.617188 197.953125 149.730469 197.953125 L 151.570312 197.953125 C 152.035156 197.953125 152.484375 197.863281 152.917969 197.683594 C 153.347656 197.503906 153.730469 197.25 154.0625 196.917969 C 154.390625 196.589844 154.648438 196.207031 154.824219 195.777344 C 155.003906 195.34375 155.09375 194.894531 155.09375 194.425781 C 155.09375 194.3125 155.136719 194.214844 155.214844 194.136719 C 155.296875 194.054688 155.394531 194.015625 155.507812 194.015625 C 155.621094 194.015625 155.71875 194.054688 155.800781 194.136719 C 155.882812 194.214844 155.921875 194.3125 155.921875 194.425781 L 155.921875 200.484375 C 155.921875 200.671875 155.886719 200.847656 155.816406 201.019531 C 155.742188 201.191406 155.644531 201.34375 155.511719 201.472656 C 155.378906 201.605469 155.230469 201.707031 155.058594 201.777344 C 154.886719 201.847656 154.707031 201.882812 154.523438 201.882812 Z M 150.140625 198.78125 L 150.140625 200.484375 C 150.140625 200.644531 150.199219 200.777344 150.308594 200.890625 C 150.421875 201 150.554688 201.054688 150.714844 201.054688 L 154.523438 201.054688 C 154.679688 201.054688 154.816406 201 154.925781 200.890625 C 155.039062 200.777344 155.09375 200.644531 155.09375 200.484375 L 155.09375 196.976562 C 154.683594 197.542969 154.167969 197.984375 153.546875 198.304688 C 152.925781 198.621094 152.265625 198.78125 151.566406 198.78125 Z M 150.140625 198.78125 " fill-opacity="1" fill-rule="nonzero"/><g fill="#004aad" fill-opacity="1"><g transform="translate(164.624218, 192.374987)"><g><path d="M 3.046875 0.265625 L 4.082031 0.265625 C 2.738281 -1.484375 2.074219 -3.652344 2.074219 -5.824219 C 2.074219 -8.050781 2.773438 -10.222656 4.097656 -11.964844 L 3.027344 -11.964844 C 1.675781 -10.339844 1.0625 -7.925781 1.0625 -5.851562 C 1.0625 -3.957031 1.785156 -1.121094 3.046875 0.265625 Z M 3.046875 0.265625 "/></g></g></g><g fill="#004aad" fill-opacity="1"><g transform="translate(169.270519, 192.374987)"><g><path d="M 3.699219 0.164062 C 4.207031 0.164062 4.628906 0.0742188 4.8125 0 L 4.8125 -1.0625 C 4.554688 -0.9375 4.257812 -0.855469 3.984375 -0.855469 C 3.378906 -0.855469 2.929688 -1.277344 2.929688 -2.191406 L 2.929688 -7.277344 L 5.027344 -7.277344 L 5.027344 -8.289062 L 2.929688 -8.289062 L 2.929688 -11.320312 L 1.699219 -10.15625 L 1.699219 -8.289062 L 0.363281 -8.289062 L 0.363281 -7.277344 L 1.691406 -7.277344 L 1.691406 -2.199219 C 1.691406 -0.78125 2.230469 0.164062 3.699219 0.164062 Z M 3.699219 0.164062 "/></g></g></g><g fill="#004aad" fill-opacity="1"><g transform="translate(174.854378, 192.374987)"><g><path d="M 1.394531 0 L 2.613281 0 L 2.613281 -4.140625 C 2.613281 -6.140625 3.46875 -7.277344 4.878906 -7.277344 C 5.269531 -7.277344 5.617188 -7.195312 5.890625 -6.960938 L 6.414062 -8.03125 C 6.109375 -8.273438 5.652344 -8.464844 5.078125 -8.464844 C 4.03125 -8.464844 3.0625 -7.832031 2.628906 -6.820312 L 2.628906 -8.289062 L 1.394531 -8.289062 Z M 1.394531 0 "/></g></g></g><g fill="#004aad" fill-opacity="1"><g transform="translate(181.450466, 192.374987)"><g><path d="M 3.328125 0.164062 C 4.507812 0.164062 5.632812 -0.355469 6.242188 -1.601562 L 6.265625 0 L 7.320312 0 L 7.320312 -5.085938 C 7.320312 -7.101562 6.183594 -8.464844 4.074219 -8.464844 C 2.707031 -8.464844 1.691406 -7.867188 0.945312 -6.835938 L 1.851562 -6.132812 C 2.25 -6.703125 2.960938 -7.386719 4.148438 -7.386719 C 5.652344 -7.386719 6.183594 -6.296875 6.183594 -4.738281 L 4.289062 -4.738281 C 1.933594 -4.738281 0.640625 -3.964844 0.640625 -2.308594 C 0.640625 -0.746094 1.765625 0.164062 3.328125 0.164062 Z M 3.46875 -0.878906 C 2.605469 -0.878906 1.917969 -1.285156 1.917969 -2.273438 C 1.917969 -3.378906 2.761719 -3.800781 4.40625 -3.800781 L 6.183594 -3.800781 C 6.183594 -2.464844 5.167969 -0.878906 3.46875 -0.878906 Z M 3.46875 -0.878906 "/></g></g></g><g fill="#004aad" fill-opacity="1"><g transform="translate(189.954856, 192.374987)"><g><path d="M 1.394531 0 L 2.628906 0 L 2.628906 -4.308594 C 2.628906 -6.363281 3.667969 -7.386719 4.972656 -7.386719 C 6.429688 -7.386719 6.855469 -6.058594 6.855469 -4.914062 L 6.855469 0 L 8.082031 0 L 8.082031 -5.035156 C 8.082031 -6.863281 7.277344 -8.4375 5.300781 -8.4375 C 4.097656 -8.4375 3.179688 -7.816406 2.628906 -6.847656 L 2.628906 -8.289062 L 1.394531 -8.289062 Z M 1.394531 0 "/></g></g></g><g fill="#004aad" fill-opacity="1"><g transform="translate(199.239161, 192.374987)"><g><path d="M 3.691406 0.164062 C 5.128906 0.164062 6.539062 -0.65625 6.539062 -2.363281 C 6.539062 -5.410156 2.066406 -4.40625 2.066406 -6.316406 C 2.066406 -6.996094 2.621094 -7.460938 3.519531 -7.460938 C 4.40625 -7.460938 5.011719 -7.011719 5.367188 -6.289062 L 6.28125 -6.8125 C 5.777344 -7.800781 4.839844 -8.464844 3.558594 -8.464844 C 2.148438 -8.464844 0.929688 -7.660156 0.929688 -6.164062 C 0.929688 -3.351562 5.335938 -4.449219 5.335938 -2.214844 C 5.335938 -1.320312 4.648438 -0.847656 3.710938 -0.847656 C 2.597656 -0.847656 1.933594 -1.542969 1.644531 -2.421875 L 0.597656 -1.882812 C 0.980469 -0.789062 2.132812 0.164062 3.691406 0.164062 Z M 3.691406 0.164062 "/></g></g></g><g fill="#004aad" fill-opacity="1"><g transform="translate(206.440927, 192.374987)"><g><path d="M 1.410156 3.632812 L 2.65625 3.632812 L 2.65625 -1.128906 C 3.21875 -0.296875 4.125 0.164062 5.195312 0.164062 C 7.417969 0.164062 8.570312 -1.800781 8.570312 -4.148438 C 8.570312 -6.523438 7.410156 -8.464844 5.1875 -8.464844 C 4.074219 -8.464844 3.195312 -7.957031 2.65625 -7.160156 L 2.65625 -8.289062 L 1.410156 -8.289062 Z M 4.929688 -0.878906 C 3.246094 -0.878906 2.539062 -2.457031 2.539062 -4.148438 C 2.539062 -5.824219 3.246094 -7.417969 4.929688 -7.417969 C 6.589844 -7.417969 7.328125 -5.824219 7.328125 -4.148438 C 7.328125 -2.457031 6.589844 -0.878906 4.929688 -0.878906 Z M 4.929688 -0.878906 "/></g></g></g><g fill="#004aad" fill-opacity="1"><g transform="translate(215.808202, 192.374987)"><g><path d="M 4.621094 0.164062 C 6.953125 0.164062 8.570312 -1.800781 8.570312 -4.164062 C 8.570312 -6.523438 6.953125 -8.464844 4.621094 -8.464844 C 2.28125 -8.464844 0.714844 -6.523438 0.714844 -4.164062 C 0.714844 -1.800781 2.28125 0.164062 4.621094 0.164062 Z M 4.628906 -0.863281 C 2.804688 -0.863281 1.957031 -2.488281 1.957031 -4.164062 C 1.957031 -5.824219 2.804688 -7.433594 4.648438 -7.433594 C 6.488281 -7.433594 7.320312 -5.824219 7.320312 -4.164062 C 7.320312 -2.523438 6.488281 -0.863281 4.628906 -0.863281 Z M 4.628906 -0.863281 "/></g></g></g><g fill="#004aad" fill-opacity="1"><g transform="translate(225.092507, 192.374987)"><g><path d="M 1.394531 0 L 2.613281 0 L 2.613281 -4.140625 C 2.613281 -6.140625 3.46875 -7.277344 4.878906 -7.277344 C 5.269531 -7.277344 5.617188 -7.195312 5.890625 -6.960938 L 6.414062 -8.03125 C 6.109375 -8.273438 5.652344 -8.464844 5.078125 -8.464844 C 4.03125 -8.464844 3.0625 -7.832031 2.628906 -6.820312 L 2.628906 -8.289062 L 1.394531 -8.289062 Z M 1.394531 0 "/></g></g></g><g fill="#004aad" fill-opacity="1"><g transform="translate(231.688595, 192.374987)"><g><path d="M 3.699219 0.164062 C 4.207031 0.164062 4.628906 0.0742188 4.8125 0 L 4.8125 -1.0625 C 4.554688 -0.9375 4.257812 -0.855469 3.984375 -0.855469 C 3.378906 -0.855469 2.929688 -1.277344 2.929688 -2.191406 L 2.929688 -7.277344 L 5.027344 -7.277344 L 5.027344 -8.289062 L 2.929688 -8.289062 L 2.929688 -11.320312 L 1.699219 -10.15625 L 1.699219 -8.289062 L 0.363281 -8.289062 L 0.363281 -7.277344 L 1.691406 -7.277344 L 1.691406 -2.199219 C 1.691406 -0.78125 2.230469 0.164062 3.699219 0.164062 Z M 3.699219 0.164062 "/></g></g></g><g fill="#004aad" fill-opacity="1"><g transform="translate(237.272453, 192.374987)"><g><path d="M 4.488281 0.117188 C 5.816406 0.117188 6.761719 -0.265625 7.660156 -1.179688 L 6.8125 -1.859375 C 6.164062 -1.171875 5.433594 -0.972656 4.480469 -0.972656 C 2.863281 -0.972656 2.050781 -2.25 2.058594 -3.726562 L 7.832031 -3.726562 C 7.851562 -3.875 7.875 -4.148438 7.875 -4.363281 C 7.875 -6.273438 7.046875 -8.40625 4.355469 -8.40625 C 1.949219 -8.40625 0.753906 -6.324219 0.753906 -4.097656 C 0.753906 -1.84375 1.964844 0.117188 4.488281 0.117188 Z M 2.058594 -4.738281 C 2.125 -6.148438 2.839844 -7.386719 4.355469 -7.386719 C 6.058594 -7.386719 6.65625 -6.066406 6.6875 -4.738281 Z M 2.058594 -4.738281 "/></g></g></g><g fill="#004aad" fill-opacity="1"><g transform="translate(245.884704, 192.374987)"><g><path d="M 3.691406 0.164062 C 5.128906 0.164062 6.539062 -0.65625 6.539062 -2.363281 C 6.539062 -5.410156 2.066406 -4.40625 2.066406 -6.316406 C 2.066406 -6.996094 2.621094 -7.460938 3.519531 -7.460938 C 4.40625 -7.460938 5.011719 -7.011719 5.367188 -6.289062 L 6.28125 -6.8125 C 5.777344 -7.800781 4.839844 -8.464844 3.558594 -8.464844 C 2.148438 -8.464844 0.929688 -7.660156 0.929688 -6.164062 C 0.929688 -3.351562 5.335938 -4.449219 5.335938 -2.214844 C 5.335938 -1.320312 4.648438 -0.847656 3.710938 -0.847656 C 2.597656 -0.847656 1.933594 -1.542969 1.644531 -2.421875 L 0.597656 -1.882812 C 0.980469 -0.789062 2.132812 0.164062 3.691406 0.164062 Z M 3.691406 0.164062 "/></g></g></g><g fill="#004aad" fill-opacity="1"><g transform="translate(253.08647, 192.374987)"><g><path d="M 0.5625 0.265625 L 1.601562 0.265625 C 2.847656 -1.078125 3.585938 -3.917969 3.585938 -5.867188 C 3.585938 -8.050781 2.960938 -10.382812 1.609375 -11.964844 L 0.546875 -11.964844 C 1.808594 -10.28125 2.574219 -7.964844 2.574219 -5.84375 C 2.574219 -3.71875 1.882812 -1.484375 0.5625 0.265625 Z M 0.5625 0.265625 "/></g></g></g></svg>