<svg xmlns="http://www.w3.org/2000/svg" xmlns:xlink="http://www.w3.org/1999/xlink" width="500" zoomAndPan="magnify" viewBox="0 0 375 374.999991" height="500" preserveAspectRatio="xMidYMid meet" version="1.0"><defs><g/><clipPath id="35d78dd115"><path d="M 130 189 L 142 189 L 142 203.597656 L 130 203.597656 Z M 130 189 " clip-rule="nonzero"/></clipPath><clipPath id="a56a23412f"><path d="M 125.222656 169.847656 L 155 169.847656 L 155 203.597656 L 125.222656 203.597656 Z M 125.222656 169.847656 " clip-rule="nonzero"/></clipPath></defs><path fill="#38b6ff" d="M 144.417969 188.398438 L 144.695312 188.007812 L 146.183594 187.6875 C 147.101562 187.488281 147.921875 186.96875 148.492188 186.222656 C 156.382812 175.871094 155.5625 171.859375 154.8125 170.589844 C 154.644531 170.308594 154.242188 170.285156 154.039062 170.546875 L 142.234375 185.835938 Z M 144.417969 188.398438 " fill-opacity="1" fill-rule="nonzero"/><g clip-path="url(#35d78dd115)"><path fill="#38b6ff" d="M 139.195312 189.472656 L 130.875 200.25 C 130.515625 200.714844 130.394531 201.324219 130.550781 201.890625 L 130.621094 202.136719 C 130.808594 202.824219 131.367188 203.34375 132.066406 203.480469 C 132.789062 203.621094 133.523438 203.324219 133.953125 202.726562 L 141.367188 192.289062 Z M 139.195312 189.472656 " fill-opacity="1" fill-rule="nonzero"/></g><g clip-path="url(#a56a23412f)"><path fill="#38b6ff" d="M 136.445312 184.859375 L 135.308594 185.148438 C 134.261719 185.414062 133.148438 185.214844 132.257812 184.605469 C 131.816406 184.304688 131.445312 183.914062 131.167969 183.457031 L 125.363281 173.898438 C 125.234375 173.6875 125.292969 173.414062 125.496094 173.273438 C 125.695312 173.136719 125.964844 173.171875 126.121094 173.355469 L 132.089844 180.402344 C 132.300781 180.652344 132.675781 180.671875 132.914062 180.449219 C 133.117188 180.257812 133.148438 179.945312 132.988281 179.714844 L 127.757812 172.195312 C 127.636719 172.023438 127.667969 171.78125 127.828125 171.644531 C 128 171.496094 128.257812 171.511719 128.410156 171.675781 L 134.453125 178.273438 C 134.652344 178.488281 134.984375 178.519531 135.21875 178.339844 C 135.46875 178.144531 135.515625 177.789062 135.320312 177.539062 L 130.050781 170.785156 C 129.867188 170.550781 129.914062 170.207031 130.15625 170.03125 C 130.367188 169.875 130.660156 169.898438 130.847656 170.082031 L 138.851562 177.9375 C 139.277344 178.359375 139.582031 178.886719 139.734375 179.464844 C 139.988281 180.425781 139.796875 181.449219 139.210938 182.253906 L 138.792969 182.832031 L 153.664062 200.230469 C 154.066406 200.699219 154.222656 201.332031 154.085938 201.929688 C 153.90625 202.730469 153.25 203.332031 152.4375 203.445312 L 152.078125 203.496094 C 151.378906 203.59375 150.679688 203.308594 150.25 202.75 Z M 136.445312 184.859375 " fill-opacity="1" fill-rule="nonzero"/></g><g fill="#004aad" fill-opacity="1"><g transform="translate(164.624218, 192.374987)"><g><path d="M 3.046875 0.265625 L 4.082031 0.265625 C 2.738281 -1.484375 2.074219 -3.652344 2.074219 -5.824219 C 2.074219 -8.050781 2.773438 -10.222656 4.097656 -11.964844 L 3.027344 -11.964844 C 1.675781 -10.339844 1.0625 -7.925781 1.0625 -5.851562 C 1.0625 -3.957031 1.785156 -1.121094 3.046875 0.265625 Z M 3.046875 0.265625 "/></g></g></g><g fill="#004aad" fill-opacity="1"><g transform="translate(169.270519, 192.374987)"><g><path d="M 1.394531 0 L 2.613281 0 L 2.613281 -4.140625 C 2.613281 -6.140625 3.46875 -7.277344 4.878906 -7.277344 C 5.269531 -7.277344 5.617188 -7.195312 5.890625 -6.960938 L 6.414062 -8.03125 C 6.109375 -8.273438 5.652344 -8.464844 5.078125 -8.464844 C 4.03125 -8.464844 3.0625 -7.832031 2.628906 -6.820312 L 2.628906 -8.289062 L 1.394531 -8.289062 Z M 1.394531 0 "/></g></g></g><g fill="#004aad" fill-opacity="1"><g transform="translate(175.866607, 192.374987)"><g><path d="M 4.488281 0.117188 C 5.816406 0.117188 6.761719 -0.265625 7.660156 -1.179688 L 6.8125 -1.859375 C 6.164062 -1.171875 5.433594 -0.972656 4.480469 -0.972656 C 2.863281 -0.972656 2.050781 -2.25 2.058594 -3.726562 L 7.832031 -3.726562 C 7.851562 -3.875 7.875 -4.148438 7.875 -4.363281 C 7.875 -6.273438 7.046875 -8.40625 4.355469 -8.40625 C 1.949219 -8.40625 0.753906 -6.324219 0.753906 -4.097656 C 0.753906 -1.84375 1.964844 0.117188 4.488281 0.117188 Z M 2.058594 -4.738281 C 2.125 -6.148438 2.839844 -7.386719 4.355469 -7.386719 C 6.058594 -7.386719 6.65625 -6.066406 6.6875 -4.738281 Z M 2.058594 -4.738281 "/></g></g></g><g fill="#004aad" fill-opacity="1"><g transform="translate(184.478858, 192.374987)"><g><path d="M 3.691406 0.164062 C 5.128906 0.164062 6.539062 -0.65625 6.539062 -2.363281 C 6.539062 -5.410156 2.066406 -4.40625 2.066406 -6.316406 C 2.066406 -6.996094 2.621094 -7.460938 3.519531 -7.460938 C 4.40625 -7.460938 5.011719 -7.011719 5.367188 -6.289062 L 6.28125 -6.8125 C 5.777344 -7.800781 4.839844 -8.464844 3.558594 -8.464844 C 2.148438 -8.464844 0.929688 -7.660156 0.929688 -6.164062 C 0.929688 -3.351562 5.335938 -4.449219 5.335938 -2.214844 C 5.335938 -1.320312 4.648438 -0.847656 3.710938 -0.847656 C 2.597656 -0.847656 1.933594 -1.542969 1.644531 -2.421875 L 0.597656 -1.882812 C 0.980469 -0.789062 2.132812 0.164062 3.691406 0.164062 Z M 3.691406 0.164062 "/></g></g></g><g fill="#004aad" fill-opacity="1"><g transform="translate(191.680625, 192.374987)"><g><path d="M 3.699219 0.164062 C 4.207031 0.164062 4.628906 0.0742188 4.8125 0 L 4.8125 -1.0625 C 4.554688 -0.9375 4.257812 -0.855469 3.984375 -0.855469 C 3.378906 -0.855469 2.929688 -1.277344 2.929688 -2.191406 L 2.929688 -7.277344 L 5.027344 -7.277344 L 5.027344 -8.289062 L 2.929688 -8.289062 L 2.929688 -11.320312 L 1.699219 -10.15625 L 1.699219 -8.289062 L 0.363281 -8.289062 L 0.363281 -7.277344 L 1.691406 -7.277344 L 1.691406 -2.199219 C 1.691406 -0.78125 2.230469 0.164062 3.699219 0.164062 Z M 3.699219 0.164062 "/></g></g></g><g fill="#004aad" fill-opacity="1"><g transform="translate(197.264483, 192.374987)"><g><path d="M 3.328125 0.164062 C 4.507812 0.164062 5.632812 -0.355469 6.242188 -1.601562 L 6.265625 0 L 7.320312 0 L 7.320312 -5.085938 C 7.320312 -7.101562 6.183594 -8.464844 4.074219 -8.464844 C 2.707031 -8.464844 1.691406 -7.867188 0.945312 -6.835938 L 1.851562 -6.132812 C 2.25 -6.703125 2.960938 -7.386719 4.148438 -7.386719 C 5.652344 -7.386719 6.183594 -6.296875 6.183594 -4.738281 L 4.289062 -4.738281 C 1.933594 -4.738281 0.640625 -3.964844 0.640625 -2.308594 C 0.640625 -0.746094 1.765625 0.164062 3.328125 0.164062 Z M 3.46875 -0.878906 C 2.605469 -0.878906 1.917969 -1.285156 1.917969 -2.273438 C 1.917969 -3.378906 2.761719 -3.800781 4.40625 -3.800781 L 6.183594 -3.800781 C 6.183594 -2.464844 5.167969 -0.878906 3.46875 -0.878906 Z M 3.46875 -0.878906 "/></g></g></g><g fill="#004aad" fill-opacity="1"><g transform="translate(205.768873, 192.374987)"><g><path d="M 4.03125 0.183594 C 5.34375 0.183594 6.308594 -0.6875 6.636719 -1.402344 L 6.636719 0 L 7.867188 0 L 7.867188 -8.289062 L 6.636719 -8.289062 L 6.636719 -3.699219 C 6.636719 -2.074219 5.492188 -0.863281 4.164062 -0.863281 C 2.746094 -0.863281 2.421875 -2.199219 2.421875 -3.394531 L 2.421875 -8.289062 L 1.1875 -8.289062 L 1.1875 -3.476562 C 1.1875 -1.410156 1.992188 0.183594 4.03125 0.183594 Z M 4.03125 0.183594 "/></g></g></g><g fill="#004aad" fill-opacity="1"><g transform="translate(215.036584, 192.374987)"><g><path d="M 1.394531 0 L 2.613281 0 L 2.613281 -4.140625 C 2.613281 -6.140625 3.46875 -7.277344 4.878906 -7.277344 C 5.269531 -7.277344 5.617188 -7.195312 5.890625 -6.960938 L 6.414062 -8.03125 C 6.109375 -8.273438 5.652344 -8.464844 5.078125 -8.464844 C 4.03125 -8.464844 3.0625 -7.832031 2.628906 -6.820312 L 2.628906 -8.289062 L 1.394531 -8.289062 Z M 1.394531 0 "/></g></g></g><g fill="#004aad" fill-opacity="1"><g transform="translate(221.632672, 192.374987)"><g><path d="M 3.328125 0.164062 C 4.507812 0.164062 5.632812 -0.355469 6.242188 -1.601562 L 6.265625 0 L 7.320312 0 L 7.320312 -5.085938 C 7.320312 -7.101562 6.183594 -8.464844 4.074219 -8.464844 C 2.707031 -8.464844 1.691406 -7.867188 0.945312 -6.835938 L 1.851562 -6.132812 C 2.25 -6.703125 2.960938 -7.386719 4.148438 -7.386719 C 5.652344 -7.386719 6.183594 -6.296875 6.183594 -4.738281 L 4.289062 -4.738281 C 1.933594 -4.738281 0.640625 -3.964844 0.640625 -2.308594 C 0.640625 -0.746094 1.765625 0.164062 3.328125 0.164062 Z M 3.46875 -0.878906 C 2.605469 -0.878906 1.917969 -1.285156 1.917969 -2.273438 C 1.917969 -3.378906 2.761719 -3.800781 4.40625 -3.800781 L 6.183594 -3.800781 C 6.183594 -2.464844 5.167969 -0.878906 3.46875 -0.878906 Z M 3.46875 -0.878906 "/></g></g></g><g fill="#004aad" fill-opacity="1"><g transform="translate(230.137062, 192.374987)"><g><path d="M 1.394531 0 L 2.628906 0 L 2.628906 -4.308594 C 2.628906 -6.363281 3.667969 -7.386719 4.972656 -7.386719 C 6.429688 -7.386719 6.855469 -6.058594 6.855469 -4.914062 L 6.855469 0 L 8.082031 0 L 8.082031 -5.035156 C 8.082031 -6.863281 7.277344 -8.4375 5.300781 -8.4375 C 4.097656 -8.4375 3.179688 -7.816406 2.628906 -6.847656 L 2.628906 -8.289062 L 1.394531 -8.289062 Z M 1.394531 0 "/></g></g></g><g fill="#004aad" fill-opacity="1"><g transform="translate(239.421367, 192.374987)"><g><path d="M 3.699219 0.164062 C 4.207031 0.164062 4.628906 0.0742188 4.8125 0 L 4.8125 -1.0625 C 4.554688 -0.9375 4.257812 -0.855469 3.984375 -0.855469 C 3.378906 -0.855469 2.929688 -1.277344 2.929688 -2.191406 L 2.929688 -7.277344 L 5.027344 -7.277344 L 5.027344 -8.289062 L 2.929688 -8.289062 L 2.929688 -11.320312 L 1.699219 -10.15625 L 1.699219 -8.289062 L 0.363281 -8.289062 L 0.363281 -7.277344 L 1.691406 -7.277344 L 1.691406 -2.199219 C 1.691406 -0.78125 2.230469 0.164062 3.699219 0.164062 Z M 3.699219 0.164062 "/></g></g></g><g fill="#004aad" fill-opacity="1"><g transform="translate(245.005225, 192.374987)"><g><path d="M 4.488281 0.117188 C 5.816406 0.117188 6.761719 -0.265625 7.660156 -1.179688 L 6.8125 -1.859375 C 6.164062 -1.171875 5.433594 -0.972656 4.480469 -0.972656 C 2.863281 -0.972656 2.050781 -2.25 2.058594 -3.726562 L 7.832031 -3.726562 C 7.851562 -3.875 7.875 -4.148438 7.875 -4.363281 C 7.875 -6.273438 7.046875 -8.40625 4.355469 -8.40625 C 1.949219 -8.40625 0.753906 -6.324219 0.753906 -4.097656 C 0.753906 -1.84375 1.964844 0.117188 4.488281 0.117188 Z M 2.058594 -4.738281 C 2.125 -6.148438 2.839844 -7.386719 4.355469 -7.386719 C 6.058594 -7.386719 6.65625 -6.066406 6.6875 -4.738281 Z M 2.058594 -4.738281 "/></g></g></g><g fill="#004aad" fill-opacity="1"><g transform="translate(253.617476, 192.374987)"><g><path d="M 0.5625 0.265625 L 1.601562 0.265625 C 2.847656 -1.078125 3.585938 -3.917969 3.585938 -5.867188 C 3.585938 -8.050781 2.960938 -10.382812 1.609375 -11.964844 L 0.546875 -11.964844 C 1.808594 -10.28125 2.574219 -7.964844 2.574219 -5.84375 C 2.574219 -3.71875 1.882812 -1.484375 0.5625 0.265625 Z M 0.5625 0.265625 "/></g></g></g></svg>